<?xml version="1.0" encoding="UTF-8" standalone="no"?>
<!-- Created with Inkscape (http://www.inkscape.org/) -->

<svg
   xmlns:dc="http://purl.org/dc/elements/1.1/"
   xmlns:cc="http://creativecommons.org/ns#"
   xmlns:rdf="http://www.w3.org/1999/02/22-rdf-syntax-ns#"
   xmlns:svg="http://www.w3.org/2000/svg"
   xmlns="http://www.w3.org/2000/svg"
   xmlns:xlink="http://www.w3.org/1999/xlink"
   xmlns:sodipodi="http://sodipodi.sourceforge.net/DTD/sodipodi-0.dtd"
   xmlns:inkscape="http://www.inkscape.org/namespaces/inkscape"
   version="1.0"
   width="18"
   height="12.1"
   id="svg3197"
   inkscape:version="0.48.3.1 r9886"
   sodipodi:docname="mail2.svg">
  <metadata
     id="metadata12">
    <rdf:RDF>
      <cc:Work
         rdf:about="">
        <dc:format>image/svg+xml</dc:format>
        <dc:type
           rdf:resource="http://purl.org/dc/dcmitype/StillImage" />
        <dc:title></dc:title>
      </cc:Work>
    </rdf:RDF>
  </metadata>
  <sodipodi:namedview
     pagecolor="#ffffff"
     bordercolor="#666666"
     borderopacity="1"
     objecttolerance="10"
     gridtolerance="10"
     guidetolerance="10"
     inkscape:pageopacity="0"
     inkscape:pageshadow="2"
     inkscape:window-width="892"
     inkscape:window-height="710"
     id="namedview10"
     showgrid="false"
     inkscape:zoom="13.227273"
     inkscape:cx="18.737539"
     inkscape:cy="7.6876276"
     inkscape:window-x="348"
     inkscape:window-y="24"
     inkscape:window-maximized="0"
     inkscape:current-layer="svg3197"
     fit-margin-top="0"
     fit-margin-left="0"
     fit-margin-right="0"
     fit-margin-bottom="-0.9" />
  <defs
     id="defs3199">
    <linearGradient
       id="linearGradient3587-6-5-3">
      <stop
         id="stop3589-9-2-2"
         style="stop-color:#000000;stop-opacity:1"
         offset="0" />
      <stop
         id="stop3591-7-4-73"
         style="stop-color:#363636;stop-opacity:1"
         offset="1" />
    </linearGradient>
    <linearGradient
       x1="45.52272"
       y1="0.94087785"
       x2="45.52272"
       y2="34.003155"
       id="linearGradient2388"
       xlink:href="#linearGradient3587-6-5-3"
       gradientUnits="userSpaceOnUse"
       gradientTransform="matrix(0.4342346,0,0,0.5947449,-37.164623,-7.6039091)" />
  </defs>
  <path
     d="M 1,1 C 0.446,1 0,1.446 0,2 l 0,10 c 0,0.554 0.446,1 1,1 l 16,0 c 0.554,0 1,-0.446 1,-1 L 18,2 C 18,1.446 17.554,1 17,1 L 1,1 z M 1.84375,2.15625 8.6875,9 l 0.59375,0 6.875,-6.84375 0.6875,0.6875 L 12.75,7 l 3.09375,3.15625 -0.6875,0.6875 L 12,7.6875 9.71875,10 8.28125,10 6,7.6875 2.84375,10.875 2.15625,10.15625 5.28125,7 1.15625,2.84375 1.84375,2.15625 z"
     id="path3193"
     style="opacity:0.6;fill:#ffffff;fill-opacity:1;fill-rule:nonzero;stroke:none;stroke-width:1;marker:none;visibility:visible;display:inline;overflow:visible;enable-background:accumulate"
     inkscape:connector-curvature="0" />
  <path
     d="M 1,0 C 0.446,0 0,0.446 0,1 l 0,10 c 0,0.554 0.446,1 1,1 l 16,0 c 0.554,0 1,-0.446 1,-1 L 18,1 C 18,0.446 17.554,0 17,0 L 1,0 z M 1.84375,1.15625 8.6875,8 l 0.59375,0 6.875,-6.84375 0.6875,0.6875 L 12.75,6 15.84375,9.15625 15.15625,9.84375 12,6.6875 9.71875,9 8.28125,9 6,6.6875 2.84375,9.875 2.15625,9.15625 5.28125,6 1.15625,1.84375 1.84375,1.15625 z"
     id="rect3170"
     style="opacity:0.7;fill:url(#linearGradient2388);fill-opacity:1;fill-rule:nonzero;stroke:none;stroke-width:1;marker:none;visibility:visible;display:inline;overflow:visible;enable-background:accumulate"
     inkscape:connector-curvature="0" />
</svg>
